<?xml version="1.0" encoding="UTF-8"?>
<svg id="Layer_2" data-name="Layer 2" xmlns="http://www.w3.org/2000/svg" viewBox="0 0 892.17 109.1">
  <defs>
    <style>
      .cls-1, .cls-2 {
        stroke-width: 0px;
      }

      .cls-2 {
        fill: #e9750c;
      }
    </style>
  </defs>
  <g id="Layer_1-2" data-name="Layer 1">
    <g>
      <path class="cls-1" d="M63.05,1.91c31.13,0,48.44,17.79,48.44,53.84s-17.15,53.36-48.44,53.36h-14.61C17.15,109.1,0,91.63,0,55.74S17.31,1.91,48.44,1.91h14.61ZM48.44,20.65c-20.65,0-29.7,10.48-29.7,35.1s8.89,34.62,29.7,34.62h14.61c20.65,0,29.54-10.16,29.54-34.78s-8.89-34.94-29.54-34.94h-14.61Z"/>
      <path class="cls-1" d="M159.76,1.91v71.62c0,10.64,5.4,16.83,17.79,16.83h19.06c12.07,0,17.63-6.19,17.63-16.83V1.91h18.42v73.05c0,22.55-11.91,34.14-34.78,34.14h-22.55c-22.87,0-34.62-11.59-34.62-34.14V1.91h19.06Z"/>
      <path class="cls-1" d="M323.49,1.91c24.14,0,34.46,14.93,34.46,32.08,0,13.34-6.35,27.63-22.71,32.24l24.93,42.88h-20.8l-24.46-41.45h-27.95c-1.75,0-2.7.79-2.7,2.7v38.75h-18.74v-42.4c0-12.07,5.08-16.99,16.83-16.99h41.77c10.64,0,14.93-7.31,14.93-14.93s-4.61-14.13-14.93-14.13h-58.76V1.91h58.13Z"/>
      <path class="cls-2" d="M516.76,87.03h-60.03l-8.74,22.08h-20.65l37.64-95.29c3.65-10.16,11.28-13.82,22.55-13.82s18.74,3.65,22.23,13.82l36.21,95.29h-20.8l-8.42-22.08ZM463.71,69.24h46.37l-17.47-46.37c-.95-2.54-2.7-3.65-5.24-3.65s-4.29,1.11-5.4,3.65l-18.26,46.37Z"/>
      <path class="cls-2" d="M624.42,1.91c24.14,0,34.46,14.93,34.46,32.08,0,16.2-9.37,33.67-34.46,33.67h-33.35c-1.75,0-2.7.79-2.7,2.7v38.75h-18.74v-42.4c0-12.07,5.08-16.99,16.83-16.99h38.59c10.64,0,14.93-7.31,14.93-14.77s-4.61-14.29-14.77-14.29h-55.74V1.91h54.95Z"/>
      <path class="cls-2" d="M740.19,1.91c24.14,0,34.46,14.93,34.46,32.08,0,16.2-9.37,33.67-34.46,33.67h-33.35c-1.75,0-2.7.79-2.7,2.7v38.75h-18.74v-42.4c0-12.07,5.08-16.99,16.83-16.99h38.59c10.64,0,14.93-7.31,14.93-14.77s-4.61-14.29-14.77-14.29h-55.74V1.91h54.95Z"/>
      <path class="cls-2" d="M884.07,1.91v18.74h-54.95c-9.69,0-13.98,5.24-13.98,12.71,0,6.51,3.33,12.71,15.88,12.71h25.09c29.22,0,36.05,16.2,36.05,31.6,0,18.1-9.69,31.45-34.15,31.45h-59.71v-18.74h60.35c10.16,0,14.77-5.56,14.77-13.34,0-6.99-3.65-13.34-16.83-13.34h-24.93c-28.59,0-35.26-16.04-35.26-30.97,0-17.79,9.53-30.81,33.35-30.81h54.31Z"/>
    </g>
  </g>
</svg>